<svg xmlns="http://www.w3.org/2000/svg" viewBox="0 0 200 200">
  <defs><clipPath id="c"><circle cx="100" cy="100" r="100"/></clipPath></defs>
  <g clip-path="url(#c)">
    <circle cx="100" cy="100" r="100" fill="#343a42"/>
    <!-- neck -->
    <rect x="88" y="118" width="24" height="28" rx="8" fill="#d9a875"/>
    <path d="M40 200 C40 152 70 138 100 138 C130 138 160 152 160 200 Z" fill="#16181c"/>
    <!-- ears -->
    <ellipse cx="64" cy="96" rx="7" ry="11" fill="#d9a875"/>
    <ellipse cx="136" cy="96" rx="7" ry="11" fill="#d9a875"/>
    <!-- head -->
    <ellipse cx="100" cy="92" rx="36" ry="42" fill="#d9a875"/>
    <path d="M62 80 Q64 52 100 50 Q136 52 138 80 L134 76 Q130 60 100 58 Q70 60 66 76 Z" fill="#6b4e2e"/>
           <path d="M64 78 Q70 56 100 54 Q130 56 136 78 Q134 64 122 56 Q104 48 82 54 Q68 60 64 78 Z" fill="#6b4e2e"/>
    <!-- eyes -->
    <ellipse cx="86" cy="92" rx="4.2" ry="5" fill="#23262b"/>
    <ellipse cx="114" cy="92" rx="4.2" ry="5" fill="#23262b"/>
    <!-- brows handled per-person in extras or default -->
    <path d="M78 81 Q86 77 94 81" stroke="#3c3128" stroke-width="3.4" fill="none" stroke-linecap="round"/>
    <path d="M106 81 Q114 77 122 81" stroke="#3c3128" stroke-width="3.4" fill="none" stroke-linecap="round"/>
    <!-- nose -->
    <path d="M100 94 Q103 103 99 107" stroke="#c2906c" stroke-width="3" fill="none" stroke-linecap="round"/>
    <!-- mouth -->
    <path d="M90 116 Q100 121 110 116" stroke="#9c5f49" stroke-width="3.4" fill="none" stroke-linecap="round"/>
    <path d="M76 124 Q100 130 124 124" stroke="#c2906c" stroke-width="2" fill="none"/>
  </g>
</svg>