<svg xmlns="http://www.w3.org/2000/svg" viewBox="0 0 200 200">
  <defs><clipPath id="c"><circle cx="100" cy="100" r="100"/></clipPath></defs>
  <g clip-path="url(#c)">
    <circle cx="100" cy="100" r="100" fill="#343a42"/>
    <!-- neck -->
    <rect x="88" y="118" width="24" height="28" rx="8" fill="#f2d6c4"/>
    <path d="M40 200 C40 152 70 138 100 138 C130 138 160 152 160 200 Z" fill="#1f2937"/>
              <path d="M88 140 L100 162 L112 140 L106 138 L100 146 L94 138 Z" fill="#ffffff"/>
              <path d="M97 146 L103 146 L101 168 L99 168 Z" fill="#22262b"/>
    <!-- ears -->
    <ellipse cx="64" cy="96" rx="7" ry="11" fill="#f2d6c4"/>
    <ellipse cx="136" cy="96" rx="7" ry="11" fill="#f2d6c4"/>
    <!-- head -->
    <ellipse cx="100" cy="92" rx="36" ry="42" fill="#f2d6c4"/>
    <path d="M64 84 Q62 60 80 54 L80 66 Q70 70 68 86 Z" fill="#b9bdc4"/>
           <path d="M136 84 Q138 60 120 54 L120 66 Q130 70 132 86 Z" fill="#b9bdc4"/>
           <path d="M70 60 Q100 48 130 60 L128 66 Q100 56 72 66 Z" fill="#b9bdc4" opacity="0.85"/>
    <!-- eyes -->
    <ellipse cx="86" cy="92" rx="4.2" ry="5" fill="#23262b"/>
    <ellipse cx="114" cy="92" rx="4.2" ry="5" fill="#23262b"/>
    <!-- brows handled per-person in extras or default -->
    <path d="M78 81 Q86 77 94 81" stroke="#3c3128" stroke-width="3.4" fill="none" stroke-linecap="round"/>
    <path d="M106 81 Q114 77 122 81" stroke="#3c3128" stroke-width="3.4" fill="none" stroke-linecap="round"/>
    <!-- nose -->
    <path d="M100 94 Q103 103 99 107" stroke="#c2906c" stroke-width="3" fill="none" stroke-linecap="round"/>
    <!-- mouth -->
    <path d="M90 116 Q100 121 110 116" stroke="#9c5f49" stroke-width="3.4" fill="none" stroke-linecap="round"/>
    <rect x="74" y="84" width="24" height="17" rx="4" fill="none" stroke="#23262b" stroke-width="3"/>
             <rect x="102" y="84" width="24" height="17" rx="4" fill="none" stroke="#23262b" stroke-width="3"/>
             <path d="M98 90 L102 90" stroke="#23262b" stroke-width="3"/>
  </g>
</svg>