<svg xmlns="http://www.w3.org/2000/svg" viewBox="0 0 200 200">
  <defs><clipPath id="c"><circle cx="100" cy="100" r="100"/></clipPath></defs>
  <g clip-path="url(#c)">
    <circle cx="100" cy="100" r="100" fill="#343a42"/>
    <!-- neck -->
    <rect x="88" y="118" width="24" height="28" rx="8" fill="#d9a875"/>
    <path d="M55 200 C55 160 75 148 100 148 C125 148 145 160 145 200 Z" fill="#15803d"/>
              <path d="M70 200 C70 168 80 150 80 150 L60 162 C56 172 55 184 55 200 Z" fill="#d9a875"/>
              <path d="M130 200 C130 168 120 150 120 150 L140 162 C144 172 145 184 145 200 Z" fill="#d9a875"/>
    <!-- ears -->
    <ellipse cx="64" cy="96" rx="7" ry="11" fill="#d9a875"/>
    <ellipse cx="136" cy="96" rx="7" ry="11" fill="#d9a875"/>
    <!-- head -->
    <ellipse cx="100" cy="92" rx="36" ry="42" fill="#d9a875"/>
    <path d="M62 80 Q62 50 100 48 Q138 50 138 80 L134 74 Q130 56 100 56 Q70 56 66 74 Z" fill="#23262b"/>
           <rect x="60" y="70" width="80" height="10" rx="5" fill="#f5f5f4"/>
    <!-- eyes -->
    <ellipse cx="86" cy="92" rx="4.2" ry="5" fill="#23262b"/>
    <ellipse cx="114" cy="92" rx="4.2" ry="5" fill="#23262b"/>
    <!-- brows handled per-person in extras or default -->
    <path d="M78 81 Q86 77 94 81" stroke="#3c3128" stroke-width="3.4" fill="none" stroke-linecap="round"/>
    <path d="M106 81 Q114 77 122 81" stroke="#3c3128" stroke-width="3.4" fill="none" stroke-linecap="round"/>
    <!-- nose -->
    <path d="M100 94 Q103 103 99 107" stroke="#c2906c" stroke-width="3" fill="none" stroke-linecap="round"/>
    <!-- mouth -->
    <path d="M90 116 Q100 121 110 116" stroke="#9c5f49" stroke-width="3.4" fill="none" stroke-linecap="round"/>
    <path d="M70 110 Q72 138 100 140 Q128 138 130 110 L130 128 Q126 148 100 150 Q74 148 70 128 Z" fill="#23262b"/>
             <rect x="93" y="101" width="14" height="6" rx="3" fill="#e7e5e4"/>
  </g>
</svg>