<svg xmlns="http://www.w3.org/2000/svg" viewBox="0 0 200 200">
  <defs><clipPath id="c"><circle cx="100" cy="100" r="100"/></clipPath></defs>
  <g clip-path="url(#c)">
    <circle cx="100" cy="100" r="100" fill="#343a42"/>
    <!-- neck -->
    <rect x="88" y="118" width="24" height="28" rx="8" fill="#eac3a8"/>
    <path d="M40 200 C40 152 70 138 100 138 C130 138 160 152 160 200 Z" fill="#1d1f23"/>
              <path d="M62 158 L84 144 L86 200 L58 200 Z" fill="#2b2e34"/>
              <path d="M138 158 L116 144 L114 200 L142 200 Z" fill="#2b2e34"/>
              <path d="M96 142 L104 142 L104 200 L96 200 Z" fill="#101113"/>
    <!-- ears -->
    <ellipse cx="64" cy="96" rx="7" ry="11" fill="#eac3a8"/>
    <ellipse cx="136" cy="96" rx="7" ry="11" fill="#eac3a8"/>
    <!-- head -->
    <ellipse cx="100" cy="92" rx="36" ry="42" fill="#eac3a8"/>
    <path d="M62 82 Q62 50 100 48 Q138 50 138 82 L134 76 Q130 56 100 56 Q70 56 66 76 Z" fill="#23262b"/>
           <path d="M64 78 Q70 54 100 52 Q130 54 136 78 Q132 62 118 54 Q100 48 82 54 Q68 62 64 78 Z" fill="#23262b"/>
    <!-- eyes -->
    <ellipse cx="86" cy="92" rx="4.2" ry="5" fill="#23262b"/>
    <ellipse cx="114" cy="92" rx="4.2" ry="5" fill="#23262b"/>
    <!-- brows handled per-person in extras or default -->
    <path d="M78 81 Q86 77 94 81" stroke="#3c3128" stroke-width="3.4" fill="none" stroke-linecap="round"/>
    <path d="M106 81 Q114 77 122 81" stroke="#3c3128" stroke-width="3.4" fill="none" stroke-linecap="round"/>
    <!-- nose -->
    <path d="M100 94 Q103 103 99 107" stroke="#c2906c" stroke-width="3" fill="none" stroke-linecap="round"/>
    <!-- mouth -->
    <path d="M90 116 Q100 121 110 116" stroke="#9c5f49" stroke-width="3.4" fill="none" stroke-linecap="round"/>
    <rect x="73" y="85" width="25" height="16" rx="6" fill="none" stroke="#23262b" stroke-width="3.4"/>
             <rect x="102" y="85" width="25" height="16" rx="6" fill="none" stroke="#23262b" stroke-width="3.4"/>
             <path d="M98 91 L102 91" stroke="#23262b" stroke-width="3.4"/>
  </g>
</svg>