<svg xmlns="http://www.w3.org/2000/svg" viewBox="0 0 200 200">
  <defs><clipPath id="c"><circle cx="100" cy="100" r="100"/></clipPath></defs>
  <g clip-path="url(#c)">
    <circle cx="100" cy="100" r="100" fill="#343a42"/>
    <!-- neck -->
    <rect x="88" y="118" width="24" height="28" rx="8" fill="#d9a875"/>
    <path d="M38 200 C38 150 68 136 100 136 C132 136 162 150 162 200 Z" fill="#1f2937"/>
              <path d="M84 138 L100 170 L116 138" stroke="#c9a227" stroke-width="5" fill="none"/>
    <!-- ears -->
    <ellipse cx="64" cy="96" rx="7" ry="11" fill="#d9a875"/>
    <ellipse cx="136" cy="96" rx="7" ry="11" fill="#d9a875"/>
    <!-- head -->
    <ellipse cx="100" cy="92" rx="36" ry="42" fill="#d9a875"/>
    <path d="M58 60 L142 60 L150 120 L134 120 L130 70 L70 70 L66 120 L50 120 Z" fill="#1e3a8a"/>
           <path d="M58 60 Q100 38 142 60 L142 72 L58 72 Z" fill="#1e3a8a"/>
           <rect x="58" y="58" width="84" height="10" rx="5" fill="#c9a227"/>
           <path d="M50 118 L66 118 L64 152 L48 144 Z" fill="#1e3a8a"/>
           <path d="M150 118 L134 118 L136 152 L152 144 Z" fill="#1e3a8a"/>
           <rect x="74" y="60" width="8" height="12" fill="#c9a227" opacity="0.8"/>
           <rect x="94" y="58" width="8" height="14" fill="#c9a227" opacity="0.8"/>
           <rect x="116" y="60" width="8" height="12" fill="#c9a227" opacity="0.8"/>
    <!-- eyes -->
    <ellipse cx="86" cy="92" rx="4.2" ry="5" fill="#23262b"/>
    <ellipse cx="114" cy="92" rx="4.2" ry="5" fill="#23262b"/>
    <!-- brows handled per-person in extras or default -->
    <path d="M78 81 Q86 77 94 81" stroke="#3c3128" stroke-width="3.4" fill="none" stroke-linecap="round"/>
    <path d="M106 81 Q114 77 122 81" stroke="#3c3128" stroke-width="3.4" fill="none" stroke-linecap="round"/>
    <!-- nose -->
    <path d="M100 94 Q103 103 99 107" stroke="#c2906c" stroke-width="3" fill="none" stroke-linecap="round"/>
    <!-- mouth -->
    <path d="M90 116 Q100 121 110 116" stroke="#9c5f49" stroke-width="3.4" fill="none" stroke-linecap="round"/>
    
  </g>
</svg>