<svg xmlns="http://www.w3.org/2000/svg" viewBox="0 0 200 200">
  <defs><clipPath id="c"><circle cx="100" cy="100" r="100"/></clipPath></defs>
  <g clip-path="url(#c)">
    <circle cx="100" cy="100" r="100" fill="#343a42"/>
    <!-- neck -->
    <rect x="88" y="118" width="24" height="28" rx="8" fill="#d9a875"/>
    <path d="M38 200 C38 150 68 136 100 136 C132 136 162 150 162 200 Z" fill="#4c1d95"/>
              <path d="M84 138 L100 170 L116 138" stroke="#c9a227" stroke-width="5" fill="none"/>
    <!-- ears -->
    <ellipse cx="64" cy="96" rx="7" ry="11" fill="#d9a875"/>
    <ellipse cx="136" cy="96" rx="7" ry="11" fill="#d9a875"/>
    <!-- head -->
    <ellipse cx="100" cy="92" rx="36" ry="42" fill="#d9a875"/>
    <path d="M64 76 Q100 50 136 76 L138 92 Q100 72 62 92 Z" fill="#8f959d"/>
           <path d="M64 100 Q60 150 80 158 L92 132 Q78 124 76 100 Z" fill="#8f959d"/>
           <path d="M136 100 Q140 150 120 158 L108 132 Q122 124 124 100 Z" fill="#8f959d"/>
           <path d="M76 118 Q100 156 124 118 L124 142 Q100 168 76 142 Z" fill="#8f959d"/>
           <path d="M62 64 L74 46 L86 60 L100 42 L114 60 L126 46 L138 64 L138 74 L62 74 Z" fill="#eab308"/>
           <circle cx="74" cy="56" r="3.4" fill="#dc2626"/><circle cx="100" cy="52" r="3.4" fill="#2563eb"/><circle cx="126" cy="56" r="3.4" fill="#dc2626"/>
    <!-- eyes -->
    <ellipse cx="86" cy="92" rx="4.2" ry="5" fill="#23262b"/>
    <ellipse cx="114" cy="92" rx="4.2" ry="5" fill="#23262b"/>
    <!-- brows handled per-person in extras or default -->
    <path d="M78 81 Q86 77 94 81" stroke="#3c3128" stroke-width="3.4" fill="none" stroke-linecap="round"/>
    <path d="M106 81 Q114 77 122 81" stroke="#3c3128" stroke-width="3.4" fill="none" stroke-linecap="round"/>
    <!-- nose -->
    <path d="M100 94 Q103 103 99 107" stroke="#c2906c" stroke-width="3" fill="none" stroke-linecap="round"/>
    <!-- mouth -->
    <path d="M90 116 Q100 121 110 116" stroke="#9c5f49" stroke-width="3.4" fill="none" stroke-linecap="round"/>
    
  </g>
</svg>