<svg xmlns="http://www.w3.org/2000/svg" viewBox="0 0 200 200">
  <defs><clipPath id="c"><circle cx="100" cy="100" r="100"/></clipPath></defs>
  <g clip-path="url(#c)">
    <circle cx="100" cy="100" r="100" fill="#343a42"/>
    <!-- neck -->
    <rect x="88" y="118" width="24" height="28" rx="8" fill="#eac3a8"/>
    <path d="M40 200 C40 152 70 138 100 138 C130 138 160 152 160 200 Z" fill="#854d0e"/>
    <!-- ears -->
    <ellipse cx="64" cy="96" rx="7" ry="11" fill="#eac3a8"/>
    <ellipse cx="136" cy="96" rx="7" ry="11" fill="#eac3a8"/>
    <!-- head -->
    <ellipse cx="100" cy="92" rx="36" ry="42" fill="#eac3a8"/>
    <path d="M66 74 Q70 58 84 54 L82 66 Q72 70 70 84 Z" fill="#b9bdc4"/>
           <path d="M134 74 Q130 58 116 54 L118 66 Q128 70 130 84 Z" fill="#b9bdc4"/>
    <!-- eyes -->
    <ellipse cx="86" cy="92" rx="4.2" ry="5" fill="#23262b"/>
    <ellipse cx="114" cy="92" rx="4.2" ry="5" fill="#23262b"/>
    <!-- brows handled per-person in extras or default -->
    <path d="M78 81 Q86 77 94 81" stroke="#3c3128" stroke-width="3.4" fill="none" stroke-linecap="round"/>
    <path d="M106 81 Q114 77 122 81" stroke="#3c3128" stroke-width="3.4" fill="none" stroke-linecap="round"/>
    <!-- nose -->
    <path d="M100 94 Q103 103 99 107" stroke="#c2906c" stroke-width="3" fill="none" stroke-linecap="round"/>
    <!-- mouth -->
    <path d="M90 116 Q100 121 110 116" stroke="#9c5f49" stroke-width="3.4" fill="none" stroke-linecap="round"/>
    <path d="M80 124 Q100 138 120 124 L118 132 Q100 144 82 132 Z" fill="#b9bdc4"/>
  </g>
</svg>