<svg xmlns="http://www.w3.org/2000/svg" viewBox="0 0 200 200">
  <defs><clipPath id="c"><circle cx="100" cy="100" r="100"/></clipPath></defs>
  <g clip-path="url(#c)">
    <circle cx="100" cy="100" r="100" fill="#343a42"/>
    <!-- neck -->
    <rect x="88" y="118" width="24" height="28" rx="8" fill="#f2d6c4"/>
    <path d="M40 200 C40 152 70 138 100 138 C130 138 160 152 160 200 Z" fill="#16181c"/>
    <!-- ears -->
    <ellipse cx="64" cy="96" rx="7" ry="11" fill="#f2d6c4"/>
    <ellipse cx="136" cy="96" rx="7" ry="11" fill="#f2d6c4"/>
    <!-- head -->
    <ellipse cx="100" cy="92" rx="36" ry="42" fill="#f2d6c4"/>
    <path d="M62 80 Q62 48 100 46 Q138 48 138 80 L134 74 Q130 54 100 54 Q70 54 66 74 Z" fill="#7a5b35"/>
           <path d="M63 78 Q68 52 100 50 Q132 52 137 78 Q133 60 116 52 Q100 46 84 52 Q67 60 63 78 Z" fill="#7a5b35"/>
           <path d="M64 76 Q66 84 70 88 L66 88 Q63 82 64 76 Z" fill="#7a5b35"/>
    <!-- eyes -->
    <ellipse cx="86" cy="92" rx="4.2" ry="5" fill="#23262b"/>
    <ellipse cx="114" cy="92" rx="4.2" ry="5" fill="#23262b"/>
    <!-- brows handled per-person in extras or default -->
    <path d="M78 81 Q86 77 94 81" stroke="#3c3128" stroke-width="3.4" fill="none" stroke-linecap="round"/>
    <path d="M106 81 Q114 77 122 81" stroke="#3c3128" stroke-width="3.4" fill="none" stroke-linecap="round"/>
    <!-- nose -->
    <path d="M100 94 Q103 103 99 107" stroke="#c2906c" stroke-width="3" fill="none" stroke-linecap="round"/>
    <!-- mouth -->
    <path d="M90 116 Q100 121 110 116" stroke="#9c5f49" stroke-width="3.4" fill="none" stroke-linecap="round"/>
    
  </g>
</svg>